<mxfile host="app.diagrams.net" agent="Mozilla/5.0 (Windows NT 10.0; Win64; x64) AppleWebKit/537.36 (KHTML, like Gecko) Chrome/133.0.0.0 Safari/537.36" version="26.0.6">
  <diagram name="Page-1" id="udpo6jmWrxSD1qXG2RZo">
    <mxGraphModel dx="1646" dy="393" grid="1" gridSize="10" guides="1" tooltips="1" connect="1" arrows="1" fold="1" page="1" pageScale="1" pageWidth="850" pageHeight="1100" math="0" shadow="0">
      <root>
        <mxCell id="0" />
        <mxCell id="1" parent="0" />
        <mxCell id="-7Tow7ALUW8dhIskJmx9-4" value="" style="edgeStyle=orthogonalEdgeStyle;rounded=0;orthogonalLoop=1;jettySize=auto;html=1;" edge="1" parent="1" source="-7Tow7ALUW8dhIskJmx9-1" target="-7Tow7ALUW8dhIskJmx9-3">
          <mxGeometry relative="1" as="geometry" />
        </mxCell>
        <mxCell id="-7Tow7ALUW8dhIskJmx9-19" value="" style="edgeStyle=orthogonalEdgeStyle;rounded=0;orthogonalLoop=1;jettySize=auto;html=1;" edge="1" parent="1" source="-7Tow7ALUW8dhIskJmx9-1" target="-7Tow7ALUW8dhIskJmx9-18">
          <mxGeometry relative="1" as="geometry" />
        </mxCell>
        <mxCell id="-7Tow7ALUW8dhIskJmx9-1" value="GameVerse L2" style="rounded=1;whiteSpace=wrap;html=1;" vertex="1" parent="1">
          <mxGeometry x="110" y="380" width="480" height="60" as="geometry" />
        </mxCell>
        <mxCell id="-7Tow7ALUW8dhIskJmx9-2" value="Ethereum" style="rounded=1;whiteSpace=wrap;html=1;" vertex="1" parent="1">
          <mxGeometry x="110" y="240" width="480" height="60" as="geometry" />
        </mxCell>
        <mxCell id="-7Tow7ALUW8dhIskJmx9-5" style="edgeStyle=orthogonalEdgeStyle;rounded=0;orthogonalLoop=1;jettySize=auto;html=1;entryX=1;entryY=0.5;entryDx=0;entryDy=0;" edge="1" parent="1" source="-7Tow7ALUW8dhIskJmx9-3" target="-7Tow7ALUW8dhIskJmx9-2">
          <mxGeometry relative="1" as="geometry">
            <Array as="points">
              <mxPoint x="700" y="270" />
            </Array>
          </mxGeometry>
        </mxCell>
        <mxCell id="-7Tow7ALUW8dhIskJmx9-3" value="Bridge" style="rounded=1;whiteSpace=wrap;html=1;" vertex="1" parent="1">
          <mxGeometry x="640" y="380" width="120" height="60" as="geometry" />
        </mxCell>
        <mxCell id="-7Tow7ALUW8dhIskJmx9-7" value="" style="edgeStyle=orthogonalEdgeStyle;rounded=0;orthogonalLoop=1;jettySize=auto;html=1;" edge="1" parent="1" source="-7Tow7ALUW8dhIskJmx9-6" target="-7Tow7ALUW8dhIskJmx9-3">
          <mxGeometry relative="1" as="geometry" />
        </mxCell>
        <mxCell id="-7Tow7ALUW8dhIskJmx9-14" style="edgeStyle=orthogonalEdgeStyle;rounded=0;orthogonalLoop=1;jettySize=auto;html=1;entryX=1;entryY=0.5;entryDx=0;entryDy=0;" edge="1" parent="1" source="-7Tow7ALUW8dhIskJmx9-6" target="-7Tow7ALUW8dhIskJmx9-13">
          <mxGeometry relative="1" as="geometry">
            <Array as="points">
              <mxPoint x="780" y="530" />
              <mxPoint x="780" y="150" />
            </Array>
          </mxGeometry>
        </mxCell>
        <mxCell id="-7Tow7ALUW8dhIskJmx9-48" value="" style="edgeStyle=orthogonalEdgeStyle;rounded=0;orthogonalLoop=1;jettySize=auto;html=1;" edge="1" parent="1" source="-7Tow7ALUW8dhIskJmx9-6" target="-7Tow7ALUW8dhIskJmx9-47">
          <mxGeometry relative="1" as="geometry" />
        </mxCell>
        <mxCell id="-7Tow7ALUW8dhIskJmx9-6" value="Staking" style="rounded=1;whiteSpace=wrap;html=1;" vertex="1" parent="1">
          <mxGeometry x="640" y="500" width="120" height="60" as="geometry" />
        </mxCell>
        <mxCell id="-7Tow7ALUW8dhIskJmx9-9" value="" style="edgeStyle=orthogonalEdgeStyle;rounded=0;orthogonalLoop=1;jettySize=auto;html=1;" edge="1" parent="1" source="-7Tow7ALUW8dhIskJmx9-8" target="-7Tow7ALUW8dhIskJmx9-2">
          <mxGeometry relative="1" as="geometry" />
        </mxCell>
        <mxCell id="-7Tow7ALUW8dhIskJmx9-10" value="" style="edgeStyle=orthogonalEdgeStyle;rounded=0;orthogonalLoop=1;jettySize=auto;html=1;" edge="1" parent="1" source="-7Tow7ALUW8dhIskJmx9-8" target="-7Tow7ALUW8dhIskJmx9-1">
          <mxGeometry relative="1" as="geometry" />
        </mxCell>
        <mxCell id="-7Tow7ALUW8dhIskJmx9-8" value="Settlement Layer" style="rounded=1;whiteSpace=wrap;html=1;" vertex="1" parent="1">
          <mxGeometry x="227.5" y="320" width="245" height="40" as="geometry" />
        </mxCell>
        <mxCell id="-7Tow7ALUW8dhIskJmx9-17" value="" style="edgeStyle=orthogonalEdgeStyle;rounded=0;orthogonalLoop=1;jettySize=auto;html=1;" edge="1" parent="1" source="-7Tow7ALUW8dhIskJmx9-11" target="-7Tow7ALUW8dhIskJmx9-16">
          <mxGeometry relative="1" as="geometry" />
        </mxCell>
        <mxCell id="-7Tow7ALUW8dhIskJmx9-11" value="External DEX&lt;br&gt;Aggregator" style="ellipse;whiteSpace=wrap;html=1;aspect=fixed;" vertex="1" parent="1">
          <mxGeometry x="400" y="100" width="100" height="100" as="geometry" />
        </mxCell>
        <mxCell id="-7Tow7ALUW8dhIskJmx9-15" value="" style="edgeStyle=orthogonalEdgeStyle;rounded=0;orthogonalLoop=1;jettySize=auto;html=1;" edge="1" parent="1" source="-7Tow7ALUW8dhIskJmx9-13" target="-7Tow7ALUW8dhIskJmx9-11">
          <mxGeometry relative="1" as="geometry" />
        </mxCell>
        <mxCell id="-7Tow7ALUW8dhIskJmx9-13" value="Wrapped Platform token" style="rounded=1;whiteSpace=wrap;html=1;" vertex="1" parent="1">
          <mxGeometry x="590" y="120" width="120" height="60" as="geometry" />
        </mxCell>
        <mxCell id="-7Tow7ALUW8dhIskJmx9-21" value="" style="edgeStyle=orthogonalEdgeStyle;rounded=0;orthogonalLoop=1;jettySize=auto;html=1;" edge="1" parent="1" source="-7Tow7ALUW8dhIskJmx9-16" target="-7Tow7ALUW8dhIskJmx9-20">
          <mxGeometry relative="1" as="geometry" />
        </mxCell>
        <mxCell id="-7Tow7ALUW8dhIskJmx9-16" value="" style="shape=image;verticalLabelPosition=bottom;labelBackgroundColor=default;verticalAlign=top;aspect=fixed;imageAspect=0;image=data:image/png,iVBORw0KGgoAAAANSUhEUgAABtYAAAHMCAYAAABBbJwkAAAACXBIWXMAAG66AABuugHW3rEXAAAAAXNSR0IArs4c6QAAAARnQU1BAACxjwv8YQUAAEdMSURBVHgB7d2vvxxXmib4pz0NdlCr/oI+zYaVzJpVmA0rFRzkNNtBltkypVkzyWzZvWa7yG42LLPZMLnYsEyzZVaxXeTN03GzlZal+zMzIk7E9/v5vHWvZXfrKjPiRCqeeN+TwPieH+plAAAAAAAAgFvtDvXLoUoAAAAAAACAj3p1qF9vahMAAAAAAADgd0reh2rHehEAAAAAAADgN+oIyA+DtToS8lkAAAAAAACAf3c6AvLDeh0AAAAAAADg30dA1s60X2+pLgAAAAAAALBwP+T2UK1WHRNpJCQAAAAAAACLtcrdoZqRkAAAAAAAACxaSd+J9usDqgsAAAAAAAAszFUeFqrVehsAAAAAAABYkFUeHqodax0AAAAAAABYgJKHj4A8rV9u/n8AAAAAAADArL3O40O1Y20CAAAAAAAAM/Y8Tw/VjvUyAAAAAAAAMFO7nC9YMxISAAAAAACAWXqV84VqRkICAAAAAAAwSyXnD9WO9SIAAAAAAAAwE7tcLlirIyGfBQAAAAAAABr3KpcL1Y71OgAAAAAAANCwkr6j7NcBqgsAAAAAAAA06ocME6rV2sVISAAAAAAAABq0ynChmpGQAAAAAAAANKmk7yD7dYTqAgAAAAAAAI24yjihWq23AQAAAAAAgAasMl6odqx1AAAAAAAAYMJKxhsBeVq/3PwsAAAAAAAAMEmvM36odqxNAAAAAAAAYIJKphOqHetlAAAAAAAAYGJ2mV6wZiQkAAAAAAAAk/Iq0wvVjrUJAAAAAAAATEDJdEO1Y70IAAAAAAAAjGyX6QdrdSTkswAAAAAAAMBIvs70Q7VjvQ4AAAAAAACMoKTvBGslWKvVBQAAAAAAAAZ2lbZCtVq7GAkJAAAAAADAgFZpK1A7LSMhAQAAAAAAGERJ3/nVSpD2seoCAAAAAAAAF3aVtkK0j9XbAAAAAAAAwAWt0laAdlutAwAAAAAAABfwLO2PgDytX9KPtQQAAAAAAICzep22grP71CYAAAAAAABwRiVtBWYPqZcBAAAAAACAM9mlrbDsIWUkJAAAAAAAAGfxKm0FZY+pTQAAAAAAAOAJStoKyJ5SLwIAAAAAAACPtMvwAVf9PX8Y4fetIyGfBQAAAAAAAB7o6wwfbtUq6QOuX0b4vV8HAAAAAAAAHqBknGBrffIzvBzh96/VBQAAAAAAAO7pKsMHWrv8fhTjZiI/BwAAAAAAAPzOKsOHWbVefORnKTESEgAAAAAAgAkq6Tu2hg6yrm75mYyEBAAAAAAAYHJqwDV0gLVLH+jdZjPCz/U2AAAAAAAA8BGrDB9e/Xrz+97l+Ug/2zoAAAAAAABw4lmmNwLyQ+sRfr66v1sJAAAAAAAA3Hid4UOrXR4WWo0V/m0CAAAAAAAA6cOtX0eol3m4bqCf7Rw/KwAAAAAAADOzy/BB1ds83psL/2wfKyMhAQAAAAAAFu5Vhg+papU8npGQAAAAAAAADKpk+HCq1jpP1+WyP+On6kUAAAAAAABYnF2GD6Z2OZ8fkkF+5tOqIyGfBQAAAAAAgMX4OsOHUrVKzqcGXL8kg/zcp/U6AAAAAAAALELJOIHUOuf3MsmvI1QXAAAAAAAAZu8qwwdRu1xuhOImGeTPMNSfBwAAAAAAgAlYZfgQqtaLXE6JkZAAAAAAAACcUUnfaTV0AHWVyzMSEgAAAAAAgLOpAdfQwdMufaA3hE2SXweutwEAAAAAAGBWVhk+dPr15vcdyvOM82dcBwAAAAAAgFl4lvmOgPzQOsP/Oev+biUAAAAAAAA073WGD5t2GSdsGitE3AQAAAAAAICmlQwfMtV6mfF0Wd6fGQAAAAAAgCfaZfiA6W3G9ybD/7mNhAQAAAAAAGjUqwwfLtUqGZ+RkAAAAAAAANxLyTih2jrT0WWc1+BFAAAAAAAAaMYuwwdKu0zPDxn+dagjIZ8FAAAAAACAyfs6w4dJtUqmpwZcNega+rV4HQAAAAAAACatZJwgaZ3pepnhX49aXQAAAAAAAJisqwwfIO0yfZuM87oYCQkAAAAAADBBqwwfHrXSmVViJCQAAAAAAADpg6Ndhg+OrtIOIyEBAAAAAAAYbQRkSVs2Gf51ehsAAAAAAAAmYZXhw6Jfb37f1jzPOK/VOgAAAAAAAIzqWYyAfKh1hn+96v5uJQAAAAAAAIzmdYYPiXZpOyQaK4zcBAAAAAAAgFGUDB8O1VqlfV3Gee1eBgAAAAAAgMHtMnwwtMl8vMnwr5+RkAAAAAAAAAN7leFDoVol82EkJAAAAAAAwMyVjBOqrTM/XcZ5LV8EAAAAAACAi9tl+CBol/n6IcO/nnUk5LMAAAAAAABwMV9n+BCoVsl81YCrBl1Dv6avAwAAAAAAwEWUjBMArTN/LzP861qrCwAAAAAAAGd3leGDn12WY5NxXl8jIQEAAAAAAM5oleFDn6V1VJUYCQkAAAAAANC0kr6zaejA5yrLYyQkAAAAAABAw2rANXTQs0sf6C3RJsO/3m8DAAAAAADAk6wyfMjz683vu1TPM85rvg4AAAAAAACP8ixGQI5lneFf97q/WwkAAAAAAAAP9jrDhzu7CHeqsULNTQAAAAAAAHiQkuFDnVqrcNRlnPfgZQAAAAAAALi3XYYPdDbhQ28y/PtgJCQAAAAAAMA9vcrwYU6tEj401kjIHwIAAAAAAMCtSsYJ1dbhU7qM8568CAAAAAAAAJ+0y/ABzi7cpXaQjfG+PAsAAAAAADBJfxfG9HX6Pb2G9k+H2ofbHEdCDh101ePhmwAAAAAAMCXlE1+f5eH3kfc3X999UPsweYK18ZRDvc3wwc23MQbyvl4e6nWG98WhtgEAAAAAYAj1Pn051PObr/948mvHr0M5BmzHsO2vN19/OvnKiARr47k61CrD2qfvVuP+Nun3XBvS/lCfp18kAQAAAAA4jxqSPb+pP+Z9kNbaFj01XNunD92O3wvcmLVVht+/q1YXHqoc6pcM/16N0SkHAAAAADAXNSzr0k8mu0q/9c+vM656H3uT/t7yi7QXFsInlYxzAl+Fx6oL7xgL4fMAAAAAAHAfxyDtVfqAaYyGialV3Y7qKn3QVsJZGAU5vHoQrzKsffp9u/bhsTYZvuOvtu5+HgDGUh+saPHpruu45gPjqmvny7RpHZi/ls/RKdo/4N8d//m4Zw4AT1eva6tD/Tl9o4IurdvVe87bQ/3rzVceQbA2rFXG6Rz7Kv1NNh6vLspvM7xvDvUmAIxhlzaf5qoP02wDMJ6Sfg1tkb8jswQl7Z6jc7TP+6DtWD/ffP3p5uvxvwGgVw71ZfpGiC481j79/YPv4z4CE1WT8vrBdehWzzGCvLlaZ/j3r7YrlwAwhl2GX/fPUV0AxlXS1rp5WrAEJW2dl6qven+gPvD7Q/r7E3Wkly0kgCWp99dfpZ8s1sK63Vrt0mcJXWBC6oaBY5wMJZzLWOHoJgCMYYw1/xzVBWBcJW2tm6cFS1DS1nmp7q5N+vtOqwjbgHmp92PrgwR1nWthPZ5L7dKHmCUwopJxToBVOLcu47yX5t8DDG+Xcdb8p1YXgHGVtLVunhYsQUlb56V6eNXuttrZVu8lCNqAFpX0wU5dz1pZe+da9XryIjCCXYY/4DfhUuqeZ0O/n0ZCAgxvl+HX+3NUF4BxlbS1bp4WLEFJW+elenrt0o/3cmMUmLouutOmfC1ZxT1qBvIq4xzoJVzKWCMhfwgAQxpjrT9HdQEYV0lb6+ZpwRKUtHVeqvPWsZttFYDpMO6xndqlf1ijBC6kZJyDex0urcs4762nywCGs8s4a/1TqwvAuEraWjdPC5agpK3zUl2uash2FZ8fgfGs0u7fvZWAjQvZZfiDeReGUp/wGuP9fRYAhlDX3F8brC4A4yppa908LViCkrbOSzVM7WLEFzCcVQRqc6qruH5wJl9nnIO4hKHUgGuMDTRfB4Ah7DLOtfyp1QVgXCVtrZunBUtQ0tZ5qYavq7i/BFxGFyMf51yv4vrBE5SME7isw9BeZpxFqgsAl7bLOGu8awTQupK21s3TgiUoaeu8VOPVJj5bAudRIlBbSu1iH08e6SrjHLCMY5Nx3m8jIQEuq661vzZYXQDGVdLWunlasAQlbZ2XavzaxGdM4HHq/ctXaWvNU+ep3aGeB+5plXEO1C6MpcRISIA52mWca7rPBEDrStpaN08LlqCkrfNSTac2cZMUuL8u9lFTxgtzDyXjLBZXYWxjjYT0gRbgcnYZZ21/anUBGFdJW+vmacESlLR1Xqrp1VXcJAU+rcTYR/Xb2sV4SG5xlXEOyhKmYJPh3/+3AeBS6jX21warC8C4StpaN08LlqCkrfNSTbdexTYVwG99nXEme6k26iqyDD6wyjgH4ypMRck4x8DLAHAJu4yzrj+1ugCMq6StdfO0YAlK2jov1bRrF/emgD5k36St9UuNU7u4bnCjLhz1gBj6ILwKU7PO8MdBfQqkBIBz22X4Nf0c1QVgXCVtrZunBUtQ0tZ5qdqoq7g3AUvVRZeaenhdxXVj8V5n+ANvFwfeVNX3ZujjYRMAzm2M9fwc1QVgXCVtrZunBUtQ0tZ5qdqpXXQhwNKMcV9czad2aTTj+Cw8Vck4o/i+PdQ+TNFXGV4XIyEBAACA8ZT0HQhX8TA4zF051Nu4H8nTlPTh2quwOPWNHzrJ3YSpe5PhjwsjIQHOa5fh1/JzVBeAcZW0tW6eFixBSVvnpWqzdnGPAuaqi9GP6vx1lX7LrSboWHuaVxnnQ8IYHVE8zDrDdxTWhed1AAAAAMZVogsB5ujr9E0fzQQgNGOVvguypAGCtccr6cOToRkB2YZ3GScAfXFTAAAAAGNbp7EuBOCT6gP9bwKXU9IHt88zcYK1x9tkePuME+bxONtDfZ/h1YucD6wAAADAFKzSUBcC8Dv1PmO9F24/NYZQ0sD+fYK1x6ktryXD+yK0pi4A7zKsEqMWAAAAgOkoaaQLAfiNkj7k6ALDqs0jk73HLVh7uBIjILm/Gqp9k+HVQK8LAAAAwDSUNNCFAPyHkj4QL4FxrKOBZDbqXOhfB65daF29CI1x3BgJCfB4dR39tcHqAjCukrbWzdOCJShp67xU86xXAaasdpfu0ta6ouZbtXttUnSsPczqpob2VWhdfQ+NhAQAAADQhQBTVkO1TXSqMR210/kqEyJYu7+ScS7414fahtbt04/zHFpddMwvBwAAAKZmnYndKAX+I1QzBYupWWVC1wzB2v3VUK1kWPuME8ZwGW8yTkjqQyoAAAAwRau4bwFTIVRj6laZyDVDsHY/q4wzArKGavswJ2OM9awXRRsDAwAAAFO0inANxlYiVKMNq0xgzzXB2t3qYjLWCMjrMDf7jNOFOEbHJQAAAMB9rCJcg7GUCNVoS20iGXWfTsHa3YyA5NzWGb4TsV4YfUAFAAAApmoV9y5gaCV9qFYCbVlnxHBNsHa7knFG6BkBOX9jjITsYiQkAAAAMF2rTGDEFyxEfRBfqEbL1of6MiMQrN1uk+FtYwTkEmwP9V2GZyQkAAAAMGWjj/iChagdoiXQtutDPc/ABGufNlYAMUYnE+NYZ5yRkJ78AgAAAKZsHVN34JLqve8XgXn4IQNnOYK1jyvpL+BDMwJyWd5lnCD1RVw4AQAAgGmrDwZ3Ac7t64xz7xsupaQP155lIIK1jxtjBOQ+FrQl2h7q+wyvfjgdbKEBAAAAeITBuxBg5sqh3gTmp46DHGxSm2Dt92piXzK8L8JS1dEG7zKsEvPKAQAAgGmrDwVv4uFgOIeScRpKYCirDDRG+O/DqRIjIBleDdW+Sb9h6JDqIvOv6bvmAAAAAKaopO9c81A6PE3t5inhnN7lfcPE/h7//bObKuFS6nG+PdRPuSDB2m/VDp6hn4DZxwhIkutDfZnhZ4fXMO/zDN8xBwAAAHBfXfr7dt8GeIx6/rwID1Xvme7ThzQ/33x/rNNQ7bHKTT07+f6P6cca6tR9vPowhnveA1kd6tcRqgv0yqF+yfDH4GCzZwEas8s4nw18tgBaV9LWunlasAQlbZ2XSp1WF+ChSto6z8esXfo96FYZv6usBmtd+qljNSiqP1sLr+FU6ipcXMk4B6Y3lw/VhXKMheZ5APjQLuOsyU+tLgDjKmlr3TwtWIKSts5LpU6rPpBcAtxXDWd2aes8H3pNuUofpLXQIVbS/6w1aBujQaO1+jJc1FWGf1N38UGAj9tk+OPxbQD4UL1W/9pgdQEYV0lb6+ZpwRKUtHVeKvVhbQLcV51U1cq5PVTVQKp2pXVpX5d+i6Fd2noPhnyvSy7g78Iq43SOfZX+oIcPlfSL4dC+SX9RAaBX1+KS9tRN3bcBGE/JOJ9nz8HfkVmCknbP0X2m/TmnfPDPzz4ozsc9DLhb3VPth3C0PdT3h/ox89x7q0ufdXwZTm3T3yfhjMZqhR0jyKMt68wowQdo1C7Dr8XnqC4A4yppa908LViCkrbOy9PapH0l/XYMXfoboOv0AVH9s9VpMi28D1Mo9zDgdkZAvq+rLOvvySX9dkO7tPU+XbJW4azGaIXdxYWf+6nHytDH5yYAHI2xDp+jugCMq6StdfO0YAlK2jovT2uTZajBW+00OQZuLbw3jgeYFiMg+0CtZNlWEbDVqg9j6Bw/k5Jx3sRV4H66jHOMvgwA1S7jrMNPrS4A4yppa908LViCkrbOy9PaZJnqzcAu9tH5WLmHAb9X0tZ5fO7aRKD2oVVcP16Hs9hl+DdvE3iY+nTa0MepcQoAvV2GX4PPUV0AxlXS1rp5WrAEJW2dl6e1CVWXPmSrf39v5b27VLmHAb+3S1vn8blqF38fvss6y752dOFJXmWcN64EHmasecg2NgUQrAE8Vklb6+ZpwRKUtHVentYmnCrRheC4gN9apa3z91y1DvdV0j+c0dL763oxASXjvGnrwON0GeeYfRGAZdtlnPX3qdUFYFwlba2bpwVLUNLWeXlam/Apqyw7YOsClCxvHXibfl9KHm6VZV43jBB+pF2Gf7N2gae5zjjHrU0dgSWr6+CvDVYXgHGVtLVunhYsQUlb5+VpbcJd6g3DXdp6X89Ru7iHAVdp67x9atUtdJz3T1OyvO61OgrTcfNAX2ecN6sEnqae7GPMv7WpI7Bku4zzueGp1QVgXCVtrZunBUtQ0tZ5eVqbcB8lyxzztQ4sV0lb5+tTqt4jXYVzWqetY8D1YkAl4wQT68B5rDLOQtMFYJl2GWfdtW4DrStpa908LViCkrbOy9PahIdYZVnda7oQWLKrtHW+PrZ20cRyKXWkZn19WzgOXC8GdJXh36Bd4Lw2Gec4ttAAS1TXv18brC4A4yppa908LViCkrbOy9PahIcq6fcgauU9fmqZvMMSdWnrPH1s1bWshEsqWU64tg53WmWcN6cLnFeJzkuAoewyzucHnz+A1pW0tW6eFixBSVvn5WltwmOt09Z7/ZQqgWXZpK1z9LHrvwf/h1GyjAcydK3doWScG2NXgcuoGxGPsdg8D8Cy7DLOevvU6gIwrpK21s3TgiUoaeu8PK1NeIp12nq/H1tXgeXo0tb5+Zi6DkOrgdMPaes4eUytwyddZfg3ZBdPx3BZmwx/XG8CsCz1ev5rg9UFYFwlba2bpwVLUNLWeXlam/BUq7T1nj+2usAybNLWufnQug5juk5bx8tDS9faJ6wyzhuyClxWyTjH9ssALMcu46y1T60uAOMqaWvdPC1YgpK2zsvT2oRzWKWt992xAh/Xpa3z8qH1Q5iCuXeurcNv1KRxl+HfiKvAMNYZ/viuKX4JwDLsMvw6e47qAjCukrbWzdOCJShp67w8rU04l1Xaeu8fUyUwb5u0dU4+pOoeXzqJpqG+D3Pec03X2gdeZ/g3YRcXbYZVj7mhj/NNAJZhjDX2HNUFYFwlba2bpwVLUNLWeXlam3BOY+3hPlRdBearpK3z8SG1i3vsUzNWE9NQtQ7/rmScN2AVGFaXcY51IyGBJdhlnDX2qdUFYFwlba2bpwVLUNLWeXlam3Bu67R1DDy0dCEwV1dp61y8b5mWNV0l/fvT0vH0kOPO9SLj3AjbBcYxxpxbiw2wBPXa/muD1QVgXCVtrZunBUtQ0tZ5eVqbcAlv0tZx8JBaB+anpK3z8CH1IkxZl7aOp4tdLz7L/LzKOKl2Sf+kQAkMowZbdeTpGBec+ntfBQAAAGhdnUqzzTx9HQ8GMz9fZp6+PdSPYcq26d+nOZrreXUvJdNIN19HwMZl1QB5Cq23XQDma5dpfK6wNgOtKWlr3TwtWIKSts7L09qES5nz/jm2s2BudmnrHLxPvQ0t2aSt4+u+1WWhdpnOm1B/llXgvLpM7zj35BcwV1Nab30QBFpS0ta6eVqwBCVtnZentQmX9DxtHQ+OG5ZolbbOv/uUfdXaUzLP/dY2WaDa2j3FN2OX/oMJPEXJdJ8EeB2AearX8Cmuu3dVF4BxlbS1bp4WLEFJW+flaW3CpdXurlaOh4dUF5iHTdo69+5TukrbVLcnauk4u28tqomkZPoJ6VUk7zxcPZFfZdrHdq0uAPOzy/TXX2syMEUlba2bpwVLUNLWeXlamzCE+jq3cDw8pH4ItK+krfPOuj5/dW1t5Vi7b62zIFdp5415Fbif2oXZSkvtLkZCAvNT17YW1uAPqwvAuEraWjdPC5agpK3z8rQ2YQgl8xvxVf887lvQunXaOu/uUyW0rK6rc7xe3OmztG+VtvYyW8f+a9yuS/+XhTdp50NfibZtAAAAmIP9ob7NvNT7K6tA277MvNR1Zh9a9i7zvF50mbmSdp8mr/U2UnneK2m/fdZ+gsCc7NLWGnysLgDjKmlr3TwtWIKSts7L09qEIdXXu4XjwvHDEnRp63y7q3bRRTonm7R1/N1Vb3KHOXSstayGELvYf23pjvuo1aD1Rdq1DwAAADAXc+tC6OIhNNr1Zealri/vwlzM7XpRz7dFBL+rtN25dkzpjdJbnhqk1fe+hWP0U1Xnzq7jKRNgfnZpaz0+VheAcZW0tW6eFixBSVvn5WltwtCu09YxcletA23apa1z7bbahTnapK3j8K7qshD1pv46bb05n1pYVmHuusxjsbmKQA2Yr13aWpOP1QVgXCVtrZunBUtQ0tZ5eVqbMLT6d/76QG0rx8hd9UugPV3aOs/uqlWYoy5tHYd31VUWpmQeT9NcxXjIOaofSF+nrWPxY7WJG7fA/O3S1tp8rC4A4yppa908LViCkrbOy9PahDGs09Zxcld1gbZcpa1z7LbahTnbpK3j8baqD2IssqGkyzxaZGsIU8IcvEr7T3nt4qkSYDnqmtfC2vxhdQEYV0lb6+ZpwRKUtHVentYmjGFuXWtvAm3Zpa1z7LZahTnr0tbxeFd1WbBV5rH/2iq0qot91ABatEtba/WxugCMq6StdfO0YAlK2jovT2sTxrJOW8fKbWUcJC15nrbOr9tqF5Zgk7aOy9tq8Q9ilMxjPOQubpa1pGQeC8kmuiaBZdqlrfX6WF0AxlXS1rp5WrAEJW2dl6e1CWOZW9daF2jDOm2dW7fVy7AEXdo6Lm+rTz6I8VmWYZ++4+ufDvVj2lXSf4i8iqBjyo77qO3S9ge1nw71xU3tAwAAACzVu0N9n/noAm34U+aj5fvy3N/2puag3ufvPvYvlhKsHe0P9ZdDfZW2g4JV+tDmVZiar9O/Ny0/gVE/LH9zqM8zn0UQAAAAeJrrzMefA9P3yZv6DbqOB/eX5F8zH134nXXsv8Z5dJnH2Mc6N9Y+agC9Xdpaw4/VBWBcJW2tm6cFS1DS1nl5WpswtvoetHCs3Kfc/2DqXqStc+q26sKSzGl88CZ8VMk89l97G+Mhx1AO9UPaOlY+tUCUAHBql7bW8mN1ARhXSVvr5mnBEpS0dV6e1iaMrUtbx8xtZb8npu4qbZ1Tn6pdWKLawNHKMXpX/e5BjKWNgvyYfd7vv7ZPu56nX6SuIiAZQj2ZXqUPNF+kXfvYRw0AAAC4n236LSTmoAtMW5d5mNNYQO5vTnvqPQ93WmUe4yFfhUtZpf1jpLbirmPsAcBtdmlrbT9WF4BxlbS1bp4WLEFJW+flaW3CFMylC+GXwHSVtHU+3VYlLNUubR2rn6o3H/7BdKz93vWhPj/Ut2lXyfv941bhXLr0H+Kv0vYF4Tp9h+Y683nKDAAAABjGXLoQ6sPGuhCYqrkcmz/FlKwl+z7z8McPf0Gw9nE1bFinDx9afvNL+hCo9SBobPWD1uv0oVqXdm3Tj3z8KgI1AAAA4HG2mc+N8i4wTV3mwRjIZbvOPHT5YPKbYO12+/QdX63vP7VK371Ww6ESHuJV+teu5Q1t9+nDtHocbwMAAADwNHPpQugC0/SnzMOc9tni4faZz4MYv+kiFazdzzZ991oNJ/ZpVw2HatfVKtylSx+ordPuPmS1K62ONK2jTa8DAAAAcB7bzMNcwgvmZS5jSvfpR0GybHPpWhSsPcF1+q6fOYyHrKFRFz5U0oePm7Td3bdNH6itY+wjAAAAcF7bzKMLoQYYJTAtc9lfbRuYT9did/oPgrWH26fv+KodbC0fFCV9eGT/td5xH7XWA8f6FMgXaX98KQAAADBtc+lC6ALTMpdgzf5qVNvMo/HjNx3OgrXH2x/qL2l/POQqfZj0Ksv1ddrfR60uTt+k71LbBgAAAOCy5tKFMJcQg/mYy4jSbaC3Tft+0+EsWHu66/Tda3Uvq33atU4fLq2yHN2h3h7qTdrdR636Lv0x+CYAAAAAw6hTc2bXhQATUNK+uawPnMe/ZR7+40EMwdr5rDOv/ddK5qvk/T5qLT+VtE0fqNVOOxcqAAAAYEj1XsRPaV8JTMscuijnEqRwHtvMQzl+I1g7r33e77+2T7tK+nBtbvuv1a60OvKydql1adc+9lEDAAAAxjeHPZTq/SLjIJmKuRyL28B7c+lg/OPxG8HaZezTh2tz2H+tdnXNYf+1VfpAbZ12xz7WxaeOHLWPGgAAADAFc+hYqwRrTEXJPMxlbeB85nBMdMdvBGuXdZ0+BPk27Sppe/+1Ln042Hr33XX6sHYdYx8BAACAadhmHvcpBGtMxRyOxX1M2eL3/pr2leM3grXLqx8u1ulDkTnsv/ZD2gioalda/XlrqNalXdv0Ix9r96NADQAAAJga+6zB+fwx7ZtDgML5bTMPpf6PYG04+/QdX63vi/Ui095/7biPWqsddkf79GFaPV62AQAAAJimOdxEn0OYwTyUtM8YSD5mVqODBWvD22Ze+6+tMh1d5rWP2nUAAAAApm2b9pW0ey+JeSlpn2CNj9lnHhPZSv2fsYI1F6o+NKndSHMYD1m7w7qMp6QP+TZp++KzTR+orWPsozUCAAAA2rDNPLgXwdieZR7H4T7wcbMZHTxGsLZK31W0Cvv0r0PtYPsx7SrpQ62hx0PWC83rjB/sPVVdUL5I+2NCz+Xr9O/piwAAAABT9y7zeED4eWBcczkGdazxKXMYHVwygpL+hvmvN1W/d9F6b5Xfvj6t1qtc/umKGr78kuTXhqv+/C/DUZc+dD99fTwtBoxpl7auK8fqAjCukrbWzdOCJShp67w8rU2Yqh/S1rH0sXKPhrHVh8xbOmc+Vm8Dn1bX2ZaO54/Vrv5Bhu5Ye5XfJnr1+3qyXWUe82Of6jp991rdY2ufdq1zua7E7ub/95u0Hbp8l/69fhNK3o/yPA3a6/v7KgAAAMDU/Zz2lcC45tCAMoe1gMvZp32DZxKr3J32uYn+XkkftE01mX1IgltyntdjkwzyM1+yNvFB7egYnN3VedgFYBy7tHFtsW4CU1PS1rp5WrAEJW2dl6e1CVO1SlvH0seq5W1amIf6AH5L58zHah34tJK2judP1WDhWv2NdrnfD1X/u1U4KpnHeMirPC5Qum/4MvXaxY3OU6s8bE0wEhIYw33XqalVF4BxlbS1bp4WLEFJW+flaW3CVNVOm1aOo0+VEXaMzUhVlqCl4/lTVTKQV3n4D/c2OntOrdJ+wLbLw7oSV5nHPmrrCIaOujyu83AdgOHtMu1rzKeqC8C4StpaN08LlqCkrfPytDZhqup9j1aOo0/VL4FxbdLWOfOx6gK326WtY/pj9SIDKHnaD3kVAdtR/ZCyznQPqPvWLrd3JXaZx4XkKgK1o/o61NfjKa/nHOZMA23ZZbrXmNuqC8C4StpaN08LlqCkrfPytDZhylp/ONp1gLHt0tb58rFy/467bNLWMf2xWmUAuzz9B63/P7SRvlcyj/3XfshvQ9NzhC9TqE3c1Dw65yjPTQCGtct0rzW3VReAcZW0tW6eFixBSVvn5WltwpTV6VOtHEufqhIYT0vnyqdKkwF3uU5bx/TH6uJZ1dc57w+8i/3XTnWZz/5rrzKPfdRW4ajL+Y9PATswpHOvYUNVF4BxlbS1bp4WLEFJW+flaW3ClM1hfyjdNoyppXPlUwV3eZO2jumP1ZvPcjkl578JXtKHMFfxBEm1PdQ/HeqrQ+3TrlXa3ofs3aG+PdTn6RP3pSvp/7KzyfnP01fx5AsAAABM0c9pXwmMo6R9+8Dd9mnfP1wyWKs3wEsuY5X+KfLXccGrrg/1xaG+D0P7MX2gtk4fsC1ZDbzqOVnPzS6XcRwtCQAAAEzLHO6LeJiXsczh2NsH7jaHa8UfLhWslQwzEq92xG1i/F61T/861A62H8OlbdOHmX+Ji0ZVx77WQG2IUY319+gCAAAATMk+7ROsMRbHHksxh2DtYh1rmwynpB8NWW/qm4Pcf4ipYU/r4yGnqp7436QP1bahS785cZ2NO+QHAF1rAAAAMC061mDZ9oG7zeJacYlgbZVxxjOW9Df47b/Wu07fvVb3/tqHc/gu/Wv6JpS830dtjEC7i05VAAAAmJJ92idYYywl7ftb4G77tO8iwdrYnSSr9N1rOlp669h/7am26QO1OoLQPmr9uVVD7C7jqj+HD7wAAAAwDbMY7xXgsZZ+35QFOXewVm90l0zDOn3Atgr7vN9/bR/ua58+lPwiXrdqlf6cWmcagVbJMHu6AQAAAHdzUx0ez8PjLMU+7SvnDNZKphdilfSjId/GeMhqnz5cs//a7eoHwTpCs75W29ClH/lYz6WpXeS/jg8eAAAAMAVzCNb+EBjHHO5v7QMLcc5grd7gLpmmugdU7bSx/1rv+lCfpw+P+K3jPmrrUC/o9ZypoVqXaao/o641AAAA4ByMggTgTucK1krauLm9Sh8SuBHfP0W0Th8i2X+t70yrIx/to/Z+H7VWRqnqWgMAAIBp2AcAbtf8/fdzBWuv0o5yqNex/9rRPv3rsNR9xPbpR2PWP/82dOlHp67TTlilaw0AAAAAoA2CtUxzb7X7KOnH3BkP2dtmWfuvHfdRqyMxr0Mdl7q5qZL26FoDAAAAoFVzuK+19ClgLMg5grWWutU+ZpW+e612sZVwnb57a87jIX9MH6itY8GvF+167NcutS7t0rUGAAAAPJWHdhmLYA0a8tRgrWQ+4xTrTfnarbMK+/Svw9z2X9umDw3/EjO/q9rlVUPluQRSutYAAACAp3BfAYA7PTVYa71b7UMl/WjIGjZ0YZ8+YGt9PGR9WuKb2EftqEvfofYm8/rAqGsNAAAAAICLekqwVjLf8Kmk716z/1rvOn33Wt2TbJ+2fJf+Z38TSt7vo/Y886RrDQAAAHisfQDgDk8J1rrMP3Rape9em1tn3mOt087+a9v0gVrtYLKPWn8Mt76P2n3oWgMAAACgNXO4f+lhdxbjKcHaksKmdfqAbRX2eb//2k+Znn368O+LeMqoWqU/dtdZzsVN1xoAAAAALRGsQUMeG6ytsrwRiSX9aMi3MR6y2h/q80xn/7V68amjKmvgtw1d3o8zXdpFrf55XwQAAAAYmhvrANyl+WvFY4O1JY9GrHtT1Q4g+6/1rvN+/7WxHPdRW4e6KNVjs4ZqXZbrywAAAABDE6wBcJdFBmtdBErVKn14Yf+13jp9uDXk/mvb9CMf7aP2fh81I0t7XZYdLAIAAAAAcAGPCdZ0grxXYv+1U/v0r8Ol9zfbpx9BWX+fbejSjyhdx5Nhp74OAAAAMJQ53JPYB8Yxh6aBEliIhwZrJQKkjynpx+8ZD9nbpu9eO/f+a8d91OrebtehjiXd3FQJH6r7rAkaAQAAYBj+Dg6Pt/RpXCxHSfv2Dw3WunCbVfrutdcRdFTX6bvKvsvT/Zg+UFvHhaZ+UK3HWO1S68JtXgYAAAAYQkn7/hbgsYTrLMZDgzX7id1PvZlfu4hWYZ/+9Xjs/mvb9OHcX6Idv6rjDWt4KzC6H+MgAQAAgPvSNcRY5nDs/UPgbiXte1DHWhddWA9R0o+GrCFIF/bpg8b7joesF5NvYh+1oy59h9qbePrjIepr1QUAAAC4tJL2CdYYyxyOvT8EFuIhwdqX4TFK+u41+6/1rtN3r9W90vaf+G++u/lv3oSS9/uoPQ+PoWsNAAAALq+kfYI1xrJP+/4xcLeS9v3tvsFa7fpYhadYpe9eM06zt07fjXY6HnKbPlCrYw7to9YfK/ZRe7ouuvwAAADg0kratw/wWO6/cR9zOE5+uW+w9iKcyzp9wLYK+/SvQw3TvripfVilP0bWcUE6Bw8GAAAAwOXpVoHH26d97mNyH3M4Tn6+b7BmDOR5lfSjId/GeMhqH/uoVV3ejw11ITqvPwcAAAC4pDncy9gHxtP6BK9ncU+Tu5W07919grUSo+gupe6ZVTuT7L+2bPWCU4+BGqp14RK6uLADAADAJc1hb/h9YDxz2BrH/TfuMofu5nsFa124tFX6UMX+a8ty3EfNaNBhrAIAAABcQkn75hBq0LZ92jeHgJ3LmkV3832CNWMgh1Fi/7Ul6dKPAl3HkxxDMQ4SAAAALqOkffvAuH5O+9zn5C5zCF/v7Fgr0bE2tJJ+LKDxkPNUF47NTZUwpC4u7gAAAHAJs7hRGhjXHI5BHWvcZi73Zu/sWOvCWFbpu9deRwAzB3XRqO9l7VLrwlhWAQAAAM6tpH1/DYxrn/b9Q+DT5vIQxp0da8ZAju9l+u6mVWjV1+lD0pdhbMZBAgAAwPn9Me3TscbY5nAMdoFPK2nfvv7PbcFa7bDpwhSU9KMhazjThVZ06TvU3sQIwqno4r0AAACAc5tDF8JPgXHN4Rh8Fvi052nfu/o/twVrXZiakr57zf5r01byfh+1OSwWc/MiAAAAwLnUex9zuJm+D4xrn/bVtaAEPu4f075/Hxt8W7BmZNp0rdJ3r70KU1IvHPU9sY/atP0pAAAAwLmUzMM+MK53mcc4SI0GfEpJ+/b1f3SstW2dPmBbhbGt0r8X62h5njodawAAAHA+Xdo3l0CD9u3Tvi7we/We+RxC138f2fqpYK3+AUtoQUk/GvJtvGdj6PJ+PKdArQ31feoCAAAAnMMcJsPYX42p+GvaVwK/N5dOxlv3WOtCa+qBWTum7L82jBrO1Ne6hmpdaE0XAAAA4Knm0oEwhzCDedinfbZh4WPmEqzd2rFmf7V2rdKHPfZfu4zjPmpGcLbNBR4AAACeblY3SmEC9mlfvX9aAr81q+5mHWvzVGL/tUvo0o/cXMfYx9Z18R4CAADAU81lH/N9YBq2mYcu8FtzeBDj5+M3HwvWujAXJf24QuMhn6ae9JubKmEu5vJUHQAAAIxlLhNhtoFp2OdmD6fGue/GqZJ53FffHr8RrC3DKn332usIhh6idjTV16x2qXVhbubyVB0AAACMoWQeN8+NgWRq9mmfbVg4NbuxwR8L1hz08/UyfdfVKtzl6/Rh5MswV38MAAAA8Fhd5kGwxtT8Ne2rQYptWDj6c+bh1mBNm+a8lfSjIWto1IUPdek71N7E4j931joAAAB4vLncKP23wLTMJew1LYqjLu3b52RM64fBmiR5OUr67jX7r/VK3u+jJnBZhrrWea8BAADgcbrMg441pmabeTAZj6pkHvnDbzpJPxassSyr9N1rr7JMNVypf3b7qC1TFwAAAOChuszj4fzafSBYY2r2OemMaZiONaou87A9/YcPgzUp8nKt0wdsqyzHKv2feR2dmktlnzUAAAB4uC8zD0I1pmgugW+939qFpZvl9ULHGqdK+tGQbzPv8ZBd3o/BFKgtWxcAAADgobrMw78GpumvmQdda8s2p3B1e/oPgjU+ph4HtZNrbvuv1RO5/plqqNYF+uNbuAoAAAD312U+94t0rDFV28zDXLqVeJy5BKvbD3/hNFjrAr+1Sh9Ctb7/2nEftaWNuuR+PFAAAAAA9zeXG+V13N42ME3bzINxkMs2l+vF7zpIT4O1Evi9krb3X+vSj7ZcR2cSHydYAwAAgPspmc9Dy7rVmLIa/O4zD8ZBLlPJfELVHz/8hdNgzc1lblPSj1H8IW2EsPV43txUCXzaHwMAAADcR5f5sL8aUzeXY7R2LWl4WJ4u87H98BdOgzU3l7mP+oTBlPdfq4v06/Rdal3gbh4qAAAAgPtpfbuQU9vAtG0zD8ZBLtPXmYftx35RxxqPtUrfDbbKdNSTtYZ+LwP3VwIAAADcpct8/g69j1GQTN828zGXkIX7eZ755E0f7Rw9BmvPoh2ThyvpO9dqmNVlPF36DrU3cRzzcPWYKQEAAABuo1sNhlX3WdtmHrroWluSOQWp24/94jFY063GU5T03WtDj4cseb+PmmOYpygBAAAAPqVkXjfFvw+0YU57Ab4IS1AyrSl3T7HPJ7qbTzvW4KlW6bvX6hNMlzymnt38HvZR41xKAAAAgE+ZU7faPjrWaMePmY8vI4dYgi7zsf3Uv9CxxiWs04deq5zfKn14t46FmPOxBgIAAMDHlcyn+6DaBtqxv6k5qPdyX4a5m9ODGJ/sbj4GayVwXiXv918rebou78dNCtQ4t38IAAAA8DFzuklazWm0Hsswp2O27r3l3u58rTKfrGmfe3Ss/WPgMkr6cO2x+689u/m/raFaF7gMHWsAAADwe13m1a22z7xG67EMczpmda3N25wexNje9i91rDGUVfpw7L4n13EftV3m9QGOafKkDAAAAPzeVeZlG2jP9lDvMh+61uZplXnlTN/f9i8FawyppN8b7a6wrEu/R1v9by2yDKEEAAAAOLXK/P6+/H2gTd9lPo4NFczLnN7Tfe7RsSa4YGgl/RNPP+S3H9DqOL7NTZXAsEoAAACAqmR+N7730bFGu7aZlzoOsgtzUa8XJfOxves/qMFaCYzjRd7vv/Y6fZdaFxhHCQAAAFDN7SZppVuNlm0zv3BN19o8lMxvK6c7rxc61piCVWxayfhKAAAAgFXmud/9daBt/5Z56eKe8BzM7UGMfXSsAQAAAAD3VDLPLpJt+pul0LI3mZ+63mj8aVedSLfKvHx7n/9IsAbQKwEAAIBlm+MIyMoYSObgXeY3DrKGalehRfW9e5352d7nP/osAFSejgEAAGDJvs48R0DuYwwk83GvbprG1K4nIyHbM8cHMa5zz+5mHWsAvX8IAAAALFPJPMfMVXMMIliubfrOtbmZa7fsXK0yzzD03t3NOtYAen8IAAAALE851CbztQ3My3eZnzpJ6oeYKNWCknnuxbnPA64XNVj7xwCgYw0AAIAlqjezS+bpOvcc6wUNqd2lc+xae555BjZzM9drxoO6m3WsAfQ8EQMAAMDSvE5/M3uujIFkjmqodu+RdY15GfutTVkNPud4zdjngXtxCtYAeoI1AAAAlqTeIJ3zDezr6FZjvua6J2JVA/8uTE29ZqwzTw9+CKMGayUAAAAAwFLM+QbpkW415myfee8fWMcNzrmbtjVfZr7XjH0ecS7pWAMAAACA5VhCqHYd3WrM35zD4zpZas77P7akBpxz7pDc5hHXC8EaQK8EAAAA5m0JoVqlW40l2GbeXWvlUJu4ZzemGqrV92DOW+g86nohWAMAAACA+av7Fq0zf9fRrcZyzD1ELhGujWUJodp1Hnm9EKwBAAAAwHyVQ7091Mssg241lmSbeXetVSV9wGPPteF0mX+ots8Trhc1WCsBAAAAAOamy7JuSF9HtxrLs4QwuaRfy16ES/sy8w/Vqu/zhOuFjjUAAAAAmJd6Q7SOflzSCLV30a3GMm3ThwRzV9e1H9LvFcll1Nf2OvO3zxP/nJ/FUxwAAAAAMBddljX68ei7uM/Jcq3Th8tLsD7UVebfUTWkY2i5zjLUhzD2eQIdawAAAADQvpL+xuiSutSO9lnODWH4mH36cHkpVukfICjhqeqo4PpaLmXM5j5n6MoTrAEAAABAu45jH3dZ7v5DRkBC8ibL6VqrSvp1z2jIx/s6ywsoz3K9EKwB9PYBAACAdnTpx6H9kuWNfTx1nWXsCQR3Weo+g+v0AVsJ91XSdze/ybL8mDNdLwRrAAAAANCG2p1WQ7TNTa2ybEsNEuBTalCyzfKU9OHaVQRst6nXkNrhV7vUuizPNzmTv8+y2kMBAAAAoCV1/5vuUH/OMm+E3qaGavsAp2p48DbLtEq/Tl4f6vtYH07VUcF1bHDJMp31eiFYA+hZCwEAABhbSR+k1a9/Sn+D+Fn4mH2WN8YM7uOnQ32Xfv+sJSrpx0OuImCruvRdal2Wa5/+mDibvw8AlWANAACASyk3X5/dfH/8+g83X8vJr3O3+nf4LwJ8yjp9l2vJcpW8D9i2WV6Ha+1Qq+FqF77KmdVg7ecAADAX9cNzCVNWN0z2QAcAPFzt5Npk2sod/8x5GAEJt6t/36hhwtTXzCGU9OFarW36DrbrzFN9OKOGaS/jQY2j61xg30EdawC9fQDmYanjPlqyzzI3FAeAp6o3CbuwdNcxAhLuY5tlj4T8mC7vRyNu04ds27StXhvrA7ZfxjXyQ/v0ew6e3d/HzWSA6m8BAAAApmyfvlsNuJ91jIT8mJL3XWy1u297qH+9+brP9JX0YVp9b2s3t+60j6tdmxeZFvP3MYYGoLIWAgAAwLTVm6T7APdV73f95VBvw6ccO75e3Pzz/lA/Herfbr7WGvu+4fOb+lP6rrQS7lIfwtjmQgRrAD1rIQAAAEzXRW+SwozVYKiOw3sd7qPkfUfYUX0N9zf1c96Hbfuc755iSR/yHTvQ/njz/fHXub99+m7NixGsAfT2AQAAAKbox1z4JinMXN2XsI4N7MJjHDvGPmWf395b3Od2z26q3PxzCedS864vcmH2WAPoecgAAAAApmeffgQk8DTHkZAlnFuJ13UqanfmPhf2WdxMBqj2AQAAAKZkn77zwP1LeLrjfmvOJ+aqjgy+zgBqsLYPAPsAAAAAU1JDgH2Ac6l7g30bmJ96bK8zkM9uvu4DsFye1AEAAIBpqeO8fgpwbnW/NeEac7JP/yDGYARrAD6oAwAAwJTUm/5vAlzK+lA/BtpXGybqyOB9BnQM1n4OwHL9LQAAAMAU1FBtHeDSvoqHzWlfPY73GZiONQBrIAAAAEzBdxGqwVBqp499DGlZHRk8SuelYA3AGggAAABj+/5QLwMMaZ8RxujBGYw6MvgYrGn5BJbMGggAAADjqaHaKsAY9uk7194F2jD6yGAdawDWQAAAABiLUA3GVx86r51rwjWmbhL7cB6DtXrC7AOwPNY/AAAAGEfdU20VYAqEa0xdfRBjnQn47OR7o9CAJbL2AQAAwPBq14E91WBahGtM1aS6m0+DtZ8DsDx/CwAAADCkSYzyAj7qGK7tA9NQrxmrTIiONWDptgEAAACG8lWEajB1wjWmYpIPYgjWgKWz9gEAAMDl7Q/1+aGuA7RgH+Ea45psd/NpsLYPwPII1gAAAOCy9ulv0Ps7OLRlH+cu45h0d/NpsFY3JHSCAEtS1zybsQIAAMDlfJ++U20foEX79Ofwd4HLq/dqJ9/d/NkH//zXACzHzwEAAAAu5ZtDreKhVpiDl+lH88Gl7NOHapNvAPswWNOxBizJNgAAAMC57dPfHH0TYE7Wh/pLhOWc349pqLv5w2BtG4Dl8DABAAAAnFcdF9dExwHwKE0FIDShdkI2Fdh+rGNN2gwsxTYAAADAOdR7ivXG6Mu4vwhzt49913i6/aG+SN8J2ZTPPvJrniYBlmAbAAAA4BxqB8s/3XwFlqEG6DVI/yq613i4bfpQbZsGfSxY+7cAzN9fAwAAADzFPv2NUXsuwXJdp+GAhMHVa8U36Y+ZfRr1sWBtG4D52wYAAAB4jHpjtO6JU0fBbQMs3T59UPJt4NO26a8bb9K4T42C9IQJMHfbAAAAAA9Vxz3WG6PruIcI/NY6/VhY201xahZdaqc+FqzVP6QDH5gzDxAAAADAw2zzfuzjPgAft08fvtt7jWqbmXSpnfrsE79unzVgzqxxAAAAcD/b9IGaPZSAh7hOv258H5Zonz5cnU2X2qlPBWvbAMzXjwEAAABus41ADXia/aFW6cdD7sMSnO7BeZ2Zui1YMyYNmKO6tm0DAAAAfKj+nfm7CNSA89qnD9eMh5y36yxkD87Pbvl3/xqA+TEGEgAAAH6r7kVeOwzqje+XEagBl3EdAdscbdM/jLGY9/W2YG0bgPkxBhIAAAB+2522iA4DYDKuI2Cbg20W2uF8W7Dm5jMwR9sAAADAMtXg7Dr9TVDdacDYriNga1HNjhY9Mvi2YM0+RMDc1NEW+wAAAMBy7PO+M+14A3sb3WnAdFznt+sT01OvGXVk8B8O9Zcs/H36+zv+fd1nrQvAPHwfAAAAmLfjw/J1j/HaVbAPQBuub6qkH0/750M9C2Paps+JruOBjP9wV7B2fajXAZiHbQAAAGA+6k3OffoQrU5p2UaQBrRvf6jVzff165fRADSkem2pDQr14Yxt+J27grXjEy5dANq2T/+XDAAAAGjNMUCrf6/9+eb7bYRowPxd530X24tDfX3zPedVrzP1GlNHB2+jO+1WdwVrVX3ipQtA2/41AAAAMC37k6/H74/B2buTX3eDE1i6/aHe3NTz9CHbn2++53GOYdqxO8215p7+7h7/TZ1h+ksA2lY3QN0H4P5exix3LuM6rknMW107X6ZN68D8tXyOTtH+ln/3Lu9vUn7qewCepqRvDKrjImvI5u/xt9unb0CoQVoN1VyPHuE+wVq1ia41oF31IvF5AAAAAIA5627qT5FpVDU4qyHaX2++7sOT3WcUZFUTzC4AbfouAAAAAMDcbW/qqEvfyfanm68l83UcIVy396qNBtsI0i7ivh1rtX1yF22UQJuMgQQAAAAAasbx/KT+MW2OkNynD89+vvl6LAZw32CtMg4SaNH2UF8EAAAAAODjjoHb8WsN3MrNPx+/DuXdSdWw7G/pg7R93u+LZm+0ET0kWOvSh2sALfnqUNcBAAAAAHi8D0O2cvLrDw3e9h98/+6DYsIeEqxVv8Q4SKAd+/RjIAEAAAAA4Mk+y8N8F4B2bAMAAAAAAGfy0I612q32SwDaULvV9gEAAAAAgDN4aMdane25DcD0bSNUAwAAAADgjB4arFXfBmD6vg8AAAAAAJzRQ0dBHr091PMATNM+/RhIAAAAAAA4m8d0rFU6QYAp01kLAAAAAMDZPbZj7dmhdjdfAaak7gX5eeyvBgAAAADAmT22Y63euP4uANPzY4RqAAAAAABcwGM71ipda8AU1b3V9gEAAAAAgDN7bMdaVbvW7LUGTMl1hGoAAAAAAFzIUzrWqpK+aw1gCnSrAQAAAABwMU/pWKv20bUGTMN1hGoAAAAAAFzQUzvWqhJda8D4dKsBAAAAAHBRT+1Yq/bRtQaM6zpCNQAAAAAALuwcHWtVia41YDy61QAAAAAAuLhzdKxV++haA8ZxHaEaAAAAAAADOFfHWlUO9fZQzwIwHN1qAAAAAAAM4lwda9X+UN8FYDjXEaoBAAAAADCQc3asVbVbbRdda8Dl7Q/1RQRrAAAAAAAM5Jwda9W76FoDhlH3ddwHAAAAAAAGcu6OtaPatVYCcBn79HurAQAAAADAYM7dsXb0VQAu59sAAAAAAMDALtWxVm0O1QXgvH481F8CAAAAAAADu2SwVg719lDPAnA+dQTkPgAAAAAAMLD/lMt5d6j/HF1rwPnUEZA/BgAAAAAARnDJjrWqdqvVrrUSgKfZH+rz9KE9AAAAAAAM7rNcVr0B/lUAnq52qwnVAAAAAAAYzSVHQR7t0++J9DwAj3OdPlgDAAAAAIDRXHoU5FEdCbm7+QrwEPtDfXHzFQAAAAAARnPpUZBHRkICj1U71fYBAAAAAICRDTEK8uh/pR8H+V8CcD/XMQISAAAAAICJGGoU5JGRkMB97WMEJAAAAAAAEzLUKMijOhLyLwG4mxGQAAAAAABMypCjII/2h/rDof45AB/33aH+JQAAAAAAMCFDj4I8qqMg3x6qBOC39of6PH2HKwAAAAAATMZYwVr1PH24BnDqn2IEJAAAAAAAEzTGKMij/+dQfzvUfw1Ar+6r9mMAAAAAAGCCxgzWqv+ZvnPtvwRYuutDfRMAAAAAAJioMUdBHtlvDdgf6osYAQkAAAAAwIRNIViratfaJn3IBiyPfdUAAAAAAJi8sUdBHtX91v6/2G8NlqiOf/wfAQAAAACAiZtKsFbV/db+cKh/DrAU3x7qXwIAAAAAAA2YyijIU3UkZBdg7n461OcBAAAAAIBGTDFYq/usvT1UCTBX+0N9EfuqAQAAAADQkCkGa1VJH649CzA379J3qu0DAAAAAAAN+SzTtD/UXwLMUT239wEAAAAAgMb8p0zX/lB/O9R/DTAX3xzq/woAAAAAADRoysFa9T/Tj6vsArTu20P9SwAAAAAAoFFTD9aq7aH+cKh/DtCq7w71fwQAAAAAABrWQrBW/Y9D/dOhngdozfeH+t8DAAAAAACN+7u049mhNhGuQUt+OtTnAQAAAACAGfgs7Xh3qC/S36gHpq+eq18EAAAAAABmoqWOtaOSvnOtBJiqffpOtXcBAAAAAICZaKlj7WifvgtmH2CK9unPUaEaAAAAAACz0mLH2lGJzjWYmn0E3wAAAAAAzFTLwVpVIlyDqdhHqAYAAAAAwIy1HqxVJcI1GNtPMf4RAAAAAICZm0OwVj1LH649DzA0oRoAAAAAAIvwWeah3tCvN/Z/CjCkbYRqAAAAAAAsxFyCtare2P/8UN8HGEI914RqAAAAAAAsxn/K/PyYfsRlF+BSvj3UywAAAAAAwILMMVirthGuwaXUUG0dAAAAAABYmLkGa9X2UH871H8NcA515ON/P9SbAAAAAADAAv1d5u/5oX44VAnwWPtD/eVQPwUAAAAAABZqCcFaVQ61iXANHmN/qC9uvgIAAAAAwGJ9lmXYH+rzQ/0Y4CG+T3/u7AMAAAAAAAs35z3WPvT/Hur/Tt+l1wW4y7eHepn+3AEAAAAAgMVbUrB2tD3Uz+nDtf8twIfeHeq/Her/DAAAAAAA8B+Wssfax5TYdw0+9NOh/hKjHwEAAAAA4HeWssfax+zT7x31XYCqngtfRKgGAAAAAAAftcRRkKfq3lH/41B/O9Q/x2hIlqmOfvzvh/qX2E8NAAAAAAA+acmjID9UYjQky7M91FfRpQYAAAAAAHda8ijID+0P9U+H+jawDPVYN/oRAAAAAAB4ku5Qu0P9qtQMa5f+GAcAAAAAAB5g6Xusfcr+UN8f6j+n33sN5uK7Q/23Q/2vAAAAAAAAnFkX3Wuq/dpFlxoAAAAAADCAZ4d6k7aCFKWOtU5/DAMAAAAAAAymRPeaaqc2h3oeAAAAAACAEb2MgE1Nt35Jf4wCAAAAAABMQjnUddoKXNT8q44sNfYRAAAAAACYpBLda2r82hyqCwAAAAAAQANWEbCp4WsXgRoAAAAAANAo+6+pIco+agAAAAAAwCyUQ63TVlCj2qgaqK1jHzUAAAAAAGBmyqGu01Zwo6ZZAjUAAAAAAGARSgRs6nElUAMAAAAAABappA9Jdmkr3FHDl0ANAAAAAADgxioCNvX7enuolxGoAQAAAAAA/M7qUJu0Ff6o89fmUF0AAAAAAAC4U4l92JZWddzjm0M9DwAAAAAAAA9W0nex1ZGALYVE6v61iXGPAAAAAAAAZ1U7ma5jL7Y5VO1OW8e4RwAAAAAAgIt7cagf0laYJExLriJMAwAAAAAAGEUdH7iKkG3KYdrm5j0y6hEAAAAAAGAiTkO2Gui0Ej7NMUy7St+ZJkwDAAAAAABoQBd7sg1Vbw/1JsY8AgAAAADAYvxdmKuSPvT5c3RSncO7Q/14qH+7+fouAAAAAADAogjWluN5+oDtTzffl3Cb/aG2h/pr+iBtHwAAAAAAYNEEa8tV8j5s++PN90vtaqvdZz+lD9G2N6UjDQAAAAAA+A3BGqeOnWz16x9Pvp+Tffrg7Of0YdpP0Y0GAAAAAADcg2CN+zgGbseqoduzTDN0e5f3HWg1PNvflAANAAAAAAB4EsEaT1UDtvLB11r/ePJ9bvn+U44B2dH+g68/n/w3+5v68P8GAAAAAADgbP5/4uERvZli3ssAAAAASUVORK5CYII=;" vertex="1" parent="1">
          <mxGeometry x="240" y="136.2" width="105" height="27.6" as="geometry" />
        </mxCell>
        <mxCell id="-7Tow7ALUW8dhIskJmx9-25" value="" style="edgeStyle=orthogonalEdgeStyle;rounded=0;orthogonalLoop=1;jettySize=auto;html=1;" edge="1" parent="1" source="-7Tow7ALUW8dhIskJmx9-18" target="-7Tow7ALUW8dhIskJmx9-24">
          <mxGeometry relative="1" as="geometry" />
        </mxCell>
        <mxCell id="-7Tow7ALUW8dhIskJmx9-26" style="edgeStyle=orthogonalEdgeStyle;rounded=0;orthogonalLoop=1;jettySize=auto;html=1;entryX=0;entryY=0.5;entryDx=0;entryDy=0;" edge="1" parent="1" source="-7Tow7ALUW8dhIskJmx9-18" target="-7Tow7ALUW8dhIskJmx9-2">
          <mxGeometry relative="1" as="geometry">
            <Array as="points">
              <mxPoint y="270" />
            </Array>
          </mxGeometry>
        </mxCell>
        <mxCell id="-7Tow7ALUW8dhIskJmx9-18" value="Bridge" style="rounded=1;whiteSpace=wrap;html=1;" vertex="1" parent="1">
          <mxGeometry x="-60" y="380" width="120" height="60" as="geometry" />
        </mxCell>
        <mxCell id="-7Tow7ALUW8dhIskJmx9-23" style="edgeStyle=orthogonalEdgeStyle;rounded=0;orthogonalLoop=1;jettySize=auto;html=1;entryX=0;entryY=0.5;entryDx=0;entryDy=0;" edge="1" parent="1" source="-7Tow7ALUW8dhIskJmx9-20" target="-7Tow7ALUW8dhIskJmx9-24">
          <mxGeometry relative="1" as="geometry">
            <Array as="points">
              <mxPoint x="-90" y="150" />
              <mxPoint x="-90" y="530" />
            </Array>
          </mxGeometry>
        </mxCell>
        <mxCell id="-7Tow7ALUW8dhIskJmx9-20" value="" style="shape=image;verticalLabelPosition=bottom;labelBackgroundColor=default;verticalAlign=top;aspect=fixed;imageAspect=0;image=https://cdn.prod.website-files.com/64053c5d931f167ecf5997be/679bd8d1dd7833b60efb0ca0_EigenLayer-logo.svg;" vertex="1" parent="1">
          <mxGeometry x="70" y="126" width="100.85" height="48" as="geometry" />
        </mxCell>
        <mxCell id="-7Tow7ALUW8dhIskJmx9-24" value="Staking&lt;br&gt;Rewards" style="rounded=1;whiteSpace=wrap;html=1;" vertex="1" parent="1">
          <mxGeometry x="-60" y="500" width="120" height="60" as="geometry" />
        </mxCell>
        <mxCell id="-7Tow7ALUW8dhIskJmx9-34" value="" style="edgeStyle=orthogonalEdgeStyle;rounded=0;orthogonalLoop=1;jettySize=auto;html=1;" edge="1" parent="1" source="-7Tow7ALUW8dhIskJmx9-27" target="-7Tow7ALUW8dhIskJmx9-28">
          <mxGeometry relative="1" as="geometry" />
        </mxCell>
        <mxCell id="-7Tow7ALUW8dhIskJmx9-36" value="" style="edgeStyle=orthogonalEdgeStyle;rounded=0;orthogonalLoop=1;jettySize=auto;html=1;" edge="1" parent="1" source="-7Tow7ALUW8dhIskJmx9-27" target="-7Tow7ALUW8dhIskJmx9-35">
          <mxGeometry relative="1" as="geometry" />
        </mxCell>
        <mxCell id="-7Tow7ALUW8dhIskJmx9-27" value="Native/Platform Token" style="rounded=1;whiteSpace=wrap;html=1;" vertex="1" parent="1">
          <mxGeometry x="420" y="470" width="170" height="40" as="geometry" />
        </mxCell>
        <mxCell id="-7Tow7ALUW8dhIskJmx9-43" style="edgeStyle=orthogonalEdgeStyle;rounded=0;orthogonalLoop=1;jettySize=auto;html=1;entryX=1;entryY=0.5;entryDx=0;entryDy=0;" edge="1" parent="1" source="-7Tow7ALUW8dhIskJmx9-28" target="-7Tow7ALUW8dhIskJmx9-42">
          <mxGeometry relative="1" as="geometry" />
        </mxCell>
        <mxCell id="-7Tow7ALUW8dhIskJmx9-28" value="Governance Protocol" style="rounded=1;whiteSpace=wrap;html=1;" vertex="1" parent="1">
          <mxGeometry x="120" y="470" width="245" height="40" as="geometry" />
        </mxCell>
        <mxCell id="-7Tow7ALUW8dhIskJmx9-41" style="edgeStyle=orthogonalEdgeStyle;rounded=0;orthogonalLoop=1;jettySize=auto;html=1;entryX=0.5;entryY=1;entryDx=0;entryDy=0;startArrow=classic;startFill=1;" edge="1" parent="1" source="-7Tow7ALUW8dhIskJmx9-29" target="-7Tow7ALUW8dhIskJmx9-33">
          <mxGeometry relative="1" as="geometry">
            <Array as="points">
              <mxPoint x="243" y="760" />
            </Array>
          </mxGeometry>
        </mxCell>
        <mxCell id="-7Tow7ALUW8dhIskJmx9-29" value="Game Managment Application" style="rounded=1;whiteSpace=wrap;html=1;" vertex="1" parent="1">
          <mxGeometry x="120" y="780" width="470" height="40" as="geometry" />
        </mxCell>
        <mxCell id="-7Tow7ALUW8dhIskJmx9-38" value="" style="edgeStyle=orthogonalEdgeStyle;rounded=0;orthogonalLoop=1;jettySize=auto;html=1;" edge="1" parent="1" source="-7Tow7ALUW8dhIskJmx9-30" target="-7Tow7ALUW8dhIskJmx9-31">
          <mxGeometry relative="1" as="geometry" />
        </mxCell>
        <mxCell id="-7Tow7ALUW8dhIskJmx9-44" style="edgeStyle=orthogonalEdgeStyle;rounded=0;orthogonalLoop=1;jettySize=auto;html=1;entryX=1;entryY=0.5;entryDx=0;entryDy=0;" edge="1" parent="1" source="-7Tow7ALUW8dhIskJmx9-30" target="-7Tow7ALUW8dhIskJmx9-42">
          <mxGeometry relative="1" as="geometry" />
        </mxCell>
        <mxCell id="-7Tow7ALUW8dhIskJmx9-30" value="LaunchPad" style="rounded=1;whiteSpace=wrap;html=1;" vertex="1" parent="1">
          <mxGeometry x="120" y="530" width="245" height="40" as="geometry" />
        </mxCell>
        <mxCell id="-7Tow7ALUW8dhIskJmx9-45" style="edgeStyle=orthogonalEdgeStyle;rounded=0;orthogonalLoop=1;jettySize=auto;html=1;entryX=1;entryY=0.5;entryDx=0;entryDy=0;" edge="1" parent="1" source="-7Tow7ALUW8dhIskJmx9-31" target="-7Tow7ALUW8dhIskJmx9-42">
          <mxGeometry relative="1" as="geometry" />
        </mxCell>
        <mxCell id="-7Tow7ALUW8dhIskJmx9-31" value="Native DEX" style="rounded=1;whiteSpace=wrap;html=1;" vertex="1" parent="1">
          <mxGeometry x="120" y="610" width="245" height="40" as="geometry" />
        </mxCell>
        <mxCell id="-7Tow7ALUW8dhIskJmx9-46" style="edgeStyle=orthogonalEdgeStyle;rounded=0;orthogonalLoop=1;jettySize=auto;html=1;" edge="1" parent="1" source="-7Tow7ALUW8dhIskJmx9-33" target="-7Tow7ALUW8dhIskJmx9-42">
          <mxGeometry relative="1" as="geometry" />
        </mxCell>
        <mxCell id="-7Tow7ALUW8dhIskJmx9-33" value="Asset Marketplace" style="rounded=1;whiteSpace=wrap;html=1;" vertex="1" parent="1">
          <mxGeometry x="120" y="700" width="245" height="40" as="geometry" />
        </mxCell>
        <mxCell id="-7Tow7ALUW8dhIskJmx9-37" value="" style="edgeStyle=orthogonalEdgeStyle;rounded=0;orthogonalLoop=1;jettySize=auto;html=1;" edge="1" parent="1" source="-7Tow7ALUW8dhIskJmx9-35" target="-7Tow7ALUW8dhIskJmx9-30">
          <mxGeometry relative="1" as="geometry" />
        </mxCell>
        <mxCell id="-7Tow7ALUW8dhIskJmx9-35" value="IERC20" style="rounded=0;whiteSpace=wrap;html=1;" vertex="1" parent="1">
          <mxGeometry x="445" y="535" width="120" height="30" as="geometry" />
        </mxCell>
        <mxCell id="-7Tow7ALUW8dhIskJmx9-40" value="" style="edgeStyle=orthogonalEdgeStyle;rounded=0;orthogonalLoop=1;jettySize=auto;html=1;" edge="1" parent="1" source="-7Tow7ALUW8dhIskJmx9-39" target="-7Tow7ALUW8dhIskJmx9-33">
          <mxGeometry relative="1" as="geometry" />
        </mxCell>
        <mxCell id="-7Tow7ALUW8dhIskJmx9-39" value="IERC721/1155" style="rounded=0;whiteSpace=wrap;html=1;" vertex="1" parent="1">
          <mxGeometry x="445" y="705" width="120" height="30" as="geometry" />
        </mxCell>
        <mxCell id="-7Tow7ALUW8dhIskJmx9-42" value="AI AGENTS" style="rounded=1;whiteSpace=wrap;html=1;" vertex="1" parent="1">
          <mxGeometry x="-60" y="580" width="120" height="240" as="geometry" />
        </mxCell>
        <mxCell id="-7Tow7ALUW8dhIskJmx9-47" value="AI AGENTS" style="rounded=1;whiteSpace=wrap;html=1;" vertex="1" parent="1">
          <mxGeometry x="640" y="580" width="120" height="240" as="geometry" />
        </mxCell>
      </root>
    </mxGraphModel>
  </diagram>
</mxfile>
